<?xml version="1.0" encoding="utf-8"?>
<svg viewBox="0 0 500 500" xmlns="http://www.w3.org/2000/svg">
  <defs>
    <clipPath id="a" clipPathUnits="userSpaceOnUse">
      <path d="M202.537 336.724h208.311v119.982H202.537z"/>
    </clipPath>
  </defs>
  <g clip-path="url(#a)" transform="matrix(2.29731894, 0, 0, -2.29731894, -453.29208374, 1167.56469727)" style="">
    <path d="M270.327 421.037c21.89 11.936 33.05 31.924 34.953 35.647-2.358-3.723-16.096-23.711-43.212-35.647v-51.025c2.709 1.49 6.108 3.236 8.259 4.983z" style="fill: rgb(255, 219, 0);"/>
    <path d="M285.354 421.037c10.677 10.275 17.773 29.04 19.925 35.647-3.04-6.607-12.608-25.372-27.682-35.647v-51.025a76.359 76.359 0 017.757 6.083z" style="fill: rgb(255, 219, 0);"/>
    <path d="M305.279 456.706c-.791-4.19-4.915-23.94-12.753-35.67v-51.024s11.69 15.746 11.69 36.428l1.069 50.228zM342.662 421.037c-21.89 11.936-33.049 31.924-34.953 35.647 2.358-3.723 16.094-23.711 43.211-35.647v-51.025c-2.912 1.282-5.552 3.017-8.258 4.876z" style="fill: rgb(255, 219, 0);"/>
    <path d="M327.633 421.037c-10.676 10.275-17.772 29.04-19.924 35.647 3.04-6.607 12.608-25.372 27.68-35.647v-51.025c-2.813 1.92-5.393 3.429-7.756 5.536z" style="fill: rgb(255, 219, 0);"/>
    <path d="M307.709 456.706c.791-4.19 4.916-23.94 12.752-35.67v-51.024s-11.689 15.746-11.689 36.428l-1.069 50.228zM216.229 354.33c-.741 2.2-2.372 3.336-4.513 3.312-2.704-.024-5.713-2.326-5.713-6.7 0-4.228 3.009-6.7 6.019-6.7 2.652 0 3.877 1.383 4.589 3.905h3.365c-.586-3.906-4.027-6.578-7.979-6.578-5.356 0-9.46 3.932-9.46 9.372 0 5.44 4.104 9.37 9.46 9.37 3.696 0 6.755-2.396 7.674-5.98zM224.082 342.114h-3.008v11.472h3.008zm-3.008 16.763h3.008v-2.966h-3.008zM224.864 353.586h2.857v-2.497h.049c.892 1.979 2.22 2.993 4.488 2.993v-2.721c-.332 0-.664.049-1.147.049-1.784 0-3.238-1.185-3.238-3.66v-5.636h-3.01zM240.956 349.632c-.18.692-.461 1.285-.87 1.68-.431.422-.992.643-1.756.643-1.685 0-2.881-1.287-2.881-4.105 0-2.77 1.196-4.104 2.88-4.104 1.403 0 2.09.742 2.549 2.078h3.009c-.585-2.746-2.422-4.204-5.532-4.204-4.207 0-6.12 2.399-6.12 6.23 0 3.884 1.913 6.233 6.12 6.233 3.263 0 5.023-1.461 5.584-4.451zM255.817 353.586v-11.472h-2.908v1.88h-.05c-.74-1.557-2.269-2.374-4.08-2.374-2.398 0-3.978 1.187-3.978 4.402v7.564h3.007v-7.27c0-1.433.613-2.57 2.27-2.57 1.683 0 2.73 1.286 2.73 3.14v6.7zM259.731 345.526c0-1.384 1.274-1.78 2.524-1.78 1.504 0 2.499.544 2.499 1.384 0 2.4-7.597.348-7.597 5.267 0 2.621 2.982 3.685 5.301 3.685 2.627 0 5.023-1.237 4.999-3.858h-2.754c0 .566-.254 1.014-.664 1.286-.407.297-.968.444-1.631.444-.918 0-2.243-.32-2.243-1.433 0-2.224 7.597-.099 7.597-5.043 0-3.04-3.238-3.858-5.304-3.858-3.058 0-5.481 1.087-5.736 3.858v.048zM282.426 347.86c0 2.816-1.198 4.152-2.933 4.104-1.682.048-2.88-1.288-2.88-4.104 0-2.77 1.198-4.105 2.88-4.105 1.735 0 2.933 1.335 2.933 4.105m-9.027 0c.027 3.881 1.913 6.23 6.121 6.23 3.798 0 6.118-2.424 6.118-6.23 0-3.759-2.32-6.232-6.118-6.232-4.208 0-6.094 2.4-6.12 6.232M293.082 353.596v-2.323h-2.856v-9.15h-3.009v9.15h-1.734v2.323h1.734v2.868c0 2.522 1.02 3.314 4.489 3.314.508 0 1.044-.05 1.376-.074v-2.473c-.281.05-.588.075-.893.075-1.506 0-1.963-.471-1.963-1.831v-1.88zM315.613 356.06h-.054l-5.25-13.945h-2.653l-5.202 13.945h-.049v-13.945h-3.214v17.654h4.946l4.845-12.956 4.945 12.956h4.897v-17.654h-3.21zM327.717 347.772v.028c-1.455-1.017-4.826.147-4.721-2.323.059-1.337 1.66-1.308 2.266-1.094 1.944.687 2.356 1.543 2.455 3.39m.125-5.65l.025 1.872h-.05c-.764-1.46-2.141-2.374-3.876-2.374-2.574 0-4.156 1.482-4.156 3.805 0 5.687 8.033 2.128 8.033 5.094 0 1.088-1.021 1.436-2.322 1.436-.968 0-2.14-.396-2.14-1.486H320.5c0 2.721 2.524 3.613 4.97 3.613 3.57 0 5.355-1.535 5.355-5.145v-6.815zM352.29 347.772v.028c-1.456-1.017-4.828.147-4.722-2.323.06-1.337 1.66-1.308 2.265-1.094 1.944.687 2.358 1.543 2.456 3.39m.124-5.65l.026 1.872h-.05c-.765-1.46-2.143-2.374-3.876-2.374-2.576 0-4.158 1.482-4.158 3.805 0 5.687 8.034 2.128 8.034 5.094 0 1.088-1.02 1.436-2.32 1.436-.969 0-2.143-.396-2.143-1.486h-2.856c0 2.721 2.525 3.613 4.973 3.613 3.568 0 5.353-1.535 5.353-5.145v-6.815zM337.582 343.746c2.191.048 2.805 2.448 2.805 4.08 0 1.632-.614 4.13-2.805 4.13-1.785 0-2.676-2.178-2.676-4.08 0-1.904.891-4.082 2.676-4.13m5.814 9.841v-12.019c0-3.385-2.575-4.843-5.814-4.843-2.574 0-5.074 1.112-5.25 3.783h3.006c.306-1.115 1.097-1.46 2.27-1.46 1.912 0 2.779.694 2.779 2.498v2.3h-.051c-.586-1.387-2.168-2.225-3.773-2.225-2.092 0-4.745 2.1-4.77 6.255-.024 4.152 2.678 6.255 5.024 6.207.916-.026 2.677-.298 3.673-2.2h.051v1.704zM356.647 353.587h9.688v-2.275l-6.296-6.874h6.399v-2.323h-10.02v2.398l6.119 6.749h-5.89zM370.357 342.114h-3.008v11.472h3.008zm-3.007 16.764h3.008v-2.967h-3.008zM371.33 342.114v11.472h2.905v-1.878h.052c.74 1.557 2.27 2.375 4.08 2.375 2.4 0 3.977-1.188 3.977-4.402v-7.567h-3.008v7.271c0 1.432-.612 2.57-2.272 2.57-1.68 0-2.726-1.287-2.726-3.14v-6.7zM392 349.334c-.15 1.683-.943 2.622-2.6 2.622-1.886 0-2.599-.989-2.88-2.622zm-5.607-2.127c0-1.68.763-3.461 2.779-3.461 1.301 0 2.346.717 2.549 2.002h3.009c-.689-3.138-3.136-4.127-5.38-4.127-4.105 0-5.967 2.817-5.967 6.23 0 3.362 1.862 6.232 5.789 6.232 4.538 0 5.889-3.143 5.762-6.876zM398.941 345.527c0-1.386 1.272-1.782 2.523-1.782 1.504 0 2.498.545 2.498 1.386 0 2.4-7.599.347-7.599 5.267 0 2.62 2.984 3.684 5.306 3.684 2.626 0 5.021-1.238 4.998-3.857h-2.753c0 .568-.259 1.014-.665 1.285-.408.298-.968.445-1.63.445-.92 0-2.246-.322-2.246-1.434 0-2.224 7.598-.099 7.598-5.043 0-3.042-3.239-3.857-5.302-3.857-3.06 0-5.482 1.087-5.739 3.857v.05zM409.868 352.875l.482 1.217h.5v-1.717h-.329v1.359l-.007-.008-.53-1.351h-.24l-.528 1.359h-.009v-1.359h-.326v1.717h.504zm-1.348.951h-.538v-1.451h-.353v1.451h-.535v.266h1.426z" style="fill: rgb(255, 219, 0);"/>
  </g>
</svg>