<svg xmlns="http://www.w3.org/2000/svg" viewBox="0 0 500 500">
  <path fill="#ffdb00" d="M253.614 118.365c1.817 9.626 11.293 54.998 29.295 81.946v117.218s-26.853-36.173-26.853-83.687l-2.456-115.39zm-210.16 235.19c-1.701-5.053-5.448-7.663-10.367-7.608-6.212.055-13.124 5.344-13.124 15.392 0 9.713 6.912 15.392 13.827 15.392 6.093 0 8.907-3.177 10.542-8.971h7.73c-1.345 8.973-9.25 15.112-18.33 15.112-12.304 0-21.732-9.033-21.732-21.53 0-12.498 9.428-21.527 21.733-21.527 8.49 0 15.518 5.505 17.63 13.738zm18.042 28.065h-6.91v-26.355h6.91zm-6.91-38.51h6.91v6.814h-6.91zm8.706 12.155h6.564V361h.112c2.05-4.546 5.1-6.876 10.31-6.876v6.251c-.762 0-1.525-.112-2.634-.112-4.099 0-7.44 2.722-7.44 8.408v12.948H63.29zm36.969 9.084c-.414-1.59-1.06-2.953-1.999-3.86-.99-.97-2.279-1.477-4.034-1.477-3.871 0-6.619 2.956-6.619 9.43 0 6.364 2.748 9.429 6.617 9.429 3.223 0 4.801-1.705 5.856-4.774h6.912c-1.344 6.308-5.564 9.658-12.709 9.658-9.664 0-14.06-5.512-14.06-14.313 0-8.922 4.396-14.319 14.06-14.319 7.497 0 11.54 3.357 12.829 10.226zm34.14-9.084v26.355h-6.68v-4.32h-.115c-1.7 3.578-5.213 5.455-9.373 5.455-5.51 0-9.14-2.727-9.14-10.113v-17.377h6.909v16.701c0 3.292 1.408 5.905 5.215 5.905 3.866 0 6.272-2.955 6.272-7.214v-15.392zm8.992 18.516c0 3.18 2.927 4.09 5.798 4.09 3.455 0 5.741-1.25 5.741-3.18 0-5.514-17.452-.8-17.452-12.1 0-6.021 6.85-8.466 12.178-8.466 6.035 0 11.54 2.842 11.484 8.863h-6.327c0-1.3-.583-2.329-1.525-2.954-.935-.682-2.224-1.02-3.747-1.02-2.11 0-5.153.735-5.153 3.292 0 5.11 17.453.228 17.453 11.586 0 6.983-7.44 8.863-12.185 8.863-7.026 0-12.592-2.498-13.178-8.863v-.11zm52.138-5.362c0-6.469-2.753-9.538-6.739-9.428-3.864-.11-6.616 2.96-6.616 9.428 0 6.364 2.752 9.43 6.616 9.43 3.986 0 6.739-3.066 6.739-9.43m-20.738 0c.062-8.916 4.394-14.312 14.062-14.312 8.725 0 14.055 5.569 14.055 14.312 0 8.636-5.33 14.317-14.055 14.317-9.668 0-14-5.513-14.06-14.317m45.216-13.177v5.337h-6.561v21.02h-6.913v-21.02h-3.984v-5.337h3.984v-6.589c0-5.794 2.343-7.613 10.313-7.613 1.167 0 2.398.115 3.16.17v5.681a11.884 11.884 0 00-2.05-.172c-3.46 0-4.51 1.082-4.51 4.206v4.32zm51.76-5.66h-.123l-12.061 32.035h-6.095l-11.95-32.036h-.113v32.036h-7.384v-40.556h11.363l11.13 29.764 11.36-29.764h11.25v40.556h-7.374zm27.807 19.04v-.065c-3.342 2.337-11.086-.337-10.845 5.337.135 3.071 3.813 3.005 5.205 2.513 4.466-1.578 5.413-3.545 5.64-7.788m.288 12.98l.057-4.3h-.115c-1.755 3.354-4.918 5.453-8.904 5.453-5.914 0-9.548-3.404-9.548-8.741 0-13.065 18.454-4.889 18.454-11.702 0-2.5-2.345-3.3-5.334-3.3-2.224 0-4.916.91-4.916 3.414h-6.561c0-6.25 5.798-8.3 11.417-8.3 8.202 0 12.302 3.527 12.302 11.82v15.656zm56.164-12.977v-.065c-3.344 2.337-11.091-.337-10.848 5.337.138 3.071 3.814 3.005 5.204 2.513 4.466-1.578 5.417-3.545 5.642-7.788m.285 12.98l.06-4.3h-.115c-1.758 3.354-4.923 5.453-8.905 5.453-5.917 0-9.552-3.404-9.552-8.74 0-13.066 18.457-4.89 18.457-11.703 0-2.5-2.343-3.3-5.33-3.3-2.226 0-4.923.91-4.923 3.414h-6.561c0-6.25 5.8-8.3 11.424-8.3 8.197 0 12.298 3.527 12.298 11.82v15.656zm-34.072-3.728c5.034-.11 6.444-5.624 6.444-9.373 0-3.75-1.41-9.488-6.444-9.488-4.1 0-6.147 5.003-6.147 9.373 0 4.374 2.047 9.377 6.147 9.488m13.357-22.608v27.611c0 7.777-5.916 11.126-13.357 11.126-5.913 0-11.656-2.555-12.06-8.69h6.905c.703 2.56 2.52 3.353 5.215 3.353 4.393 0 6.384-1.594 6.384-5.738v-5.284h-.117c-1.346 3.186-4.98 5.111-8.668 5.111-4.806 0-10.9-4.824-10.958-14.37-.055-9.538 6.152-14.37 11.542-14.259 2.104.06 6.15.685 8.438 5.054h.117v-3.914zm30.442 0h22.256v5.226l-14.464 15.792h14.7v5.336h-23.018v-5.508l14.057-15.505H366.04zm31.496 26.357h-6.91v-26.355h6.91zm-6.908-38.512h6.91v6.816h-6.91zm9.143 38.512v-26.355h6.674v4.314h.12c1.7-3.577 5.214-5.456 9.373-5.456 5.513 0 9.136 2.73 9.136 10.113v17.384h-6.91v-16.704c0-3.29-1.406-5.904-5.22-5.904-3.86 0-6.262 2.956-6.262 7.213v15.392zm47.486-16.587c-.345-3.866-2.166-6.023-5.973-6.023-4.333 0-5.97 2.272-6.616 6.023zm-12.881 4.887c0 3.859 1.753 7.95 6.384 7.95 2.989 0 5.39-1.647 5.856-4.599h6.913c-1.583 7.21-7.205 9.481-12.36 9.481-9.43 0-13.708-6.471-13.708-14.312 0-7.724 4.278-14.317 13.3-14.317 10.424 0 13.528 7.22 13.236 15.797zm28.827 3.859c0 3.184 2.922 4.094 5.796 4.094 3.455 0 5.738-1.252 5.738-3.184 0-5.514-17.457-.797-17.457-12.1 0-6.02 6.855-8.464 12.19-8.464 6.032 0 11.535 2.845 11.482 8.861h-6.325c0-1.305-.595-2.33-1.528-2.952-.937-.684-2.223-1.022-3.744-1.022-2.114 0-5.16.74-5.16 3.294 0 5.11 17.455.228 17.455 11.586 0 6.988-7.44 8.86-12.18 8.86-7.03 0-12.594-2.497-13.185-8.86v-.115zm25.102-16.88l1.108-2.796h1.148v3.944h-.755v-3.122l-.017.018-1.217 3.104h-.551l-1.213-3.122h-.021v3.122h-.75v-3.944h1.159zm-3.096-2.185h-1.236v3.333h-.811v-3.333h-1.23v-.611h3.277zM299.385 200.308c-24.526-23.605-40.828-66.714-45.771-81.892 6.983 15.178 28.964 58.287 63.59 81.892V317.53c-6.463-4.41-12.39-7.877-17.819-12.718zm-51.354-81.943c-1.817 9.626-11.291 54.998-29.298 81.946v117.218s26.856-36.173 26.856-83.687l2.456-115.39zm85.88 81.943c-50.288-27.42-75.923-73.34-80.297-81.892 5.417 8.553 36.973 54.472 99.27 81.892V317.53c-6.69-2.945-12.756-6.93-18.972-11.202zm-131.654 0c24.529-23.605 40.83-66.714 45.774-81.892-6.984 15.178-28.964 58.287-63.594 81.892V317.53a175.421 175.421 0 0017.82-13.974zm-34.522 0c50.289-27.42 75.927-73.34 80.298-81.892-5.417 8.553-36.977 54.472-99.271 81.892V317.53c6.223-3.423 14.032-7.434 18.973-11.447z"/>
</svg>
