<?xml version="1.0" encoding="utf-8"?>
<svg viewBox="0 0 500 500" xmlns="http://www.w3.org/2000/svg">
  <g transform="matrix(0.47132638, 0, 0, -0.47310659, -513.10351562, 316.96929932)" id="g10" style="">
    <g transform="scale(0.1)" id="g12">
      <path id="path14" style="fill-opacity: 1; fill-rule: nonzero; fill: rgb(255, 219, 0);" d="M 21158.75255 -3480.88762 L 21158.81508 477.97644 L 19694.76975 477.97644 L 19694.77306 686.45353 L 20063.24008 686.45353 L 19229.03127 2058.83828 L 19229.03124 2058.8383 L 18823.26313 1729.25425 L 18822.94933 1728.59683 L 18820.82242 686.45353 L 19201.59911 686.45353 L 19201.59581 477.97644 L 17732.6302 477.97644 L 17732.63349 686.45353 L 18091.59985 686.45353 L 18091.68615 6149.08299 L 17732.71978 6149.08299 L 17732.7231 6358.61572 L 13949.6294 6358.61572 L 13949.57071 2644.03053 C 13949.57092 2625.58826 13956.76843 2608.50293 13970.08093 2601.87485 C 13976.66344 2598.41675 13984.8015 2597.52482 13994.18725 2600.30399 C 14003.5981 2602.99117 14014.30353 2609.32558 14026.16361 2620.30377 C 14153.3262 2738.69659 14672.12652 3143.87802 15262.59717 3123.67817 C 15527.09388 3114.28439 15695.48272 3016.55578 15797.82746 2894.68121 C 15900.06187 2772.7136 15936.31143 2626.64838 15936.30978 2520.39666 L 15936.2808 686.45353 L 16338.45626 686.45353 L 16338.45296 477.97644 L 14869.82729 477.97644 L 14869.83058 686.45353 L 15207.75603 686.45353 L 15207.78296 2391.30663 C 15207.78485 2522.41088 15164.88775 2626.2902 15098.28228 2697.31503 C 15031.77445 2768.43196 14941.53031 2806.66844 14847.03394 2806.66844 C 14553.05156 2806.66844 14090.09322 2536.19593 13949.56541 2308.7531 L 13949.5398 687.1692 L 14331.3542 687.1692 L 14331.3509 477.97644 L 12863.08487 477.97644 L 12863.08817 687.1692 L 13221.39074 687.1692 L 13221.47704 6150.49646 L 12863.17447 6150.49646 L 12863.17776 6358.61572 L 11319.74401 6358.61572 L 11319.58858 -3480.88762 Z M 21158.90799 6358.61572 L 18820.91204 6358.61572 L 18820.84379 2038.45934 C 18820.84438 2029.01583 18823.01087 2020.72478 18826.97056 2014.15588 C 18830.86241 2007.54348 18836.54796 2002.61558 18843.50558 1999.97372 C 18857.33121 1994.46871 18876.35189 1998.06088 18896.72893 2014.5782 L 20086.82205 2976.65992 L 19694.80923 2976.65992 L 19694.81253 3185.8527 L 20903.84378 3185.8527 L 20903.84048 2976.65992 L 20567.68636 2976.65992 C 20427.87763 2976.65978 20217.11026 2864.96077 20101.20464 2769.7937 C 19953.68383 2648.41489 19824.05392 2543.92503 19824.05392 2543.92503 L 20955.08264 686.45353 L 21158.81839 686.45353 Z M 17088.94431 3886.63265 L 17088.94431 3886.6346 L 17091.94301 3889.38445 C 16828.60937 3647.90461 16455.4617 3496.69547 16018.51792 3497.35166 C 15581.21821 3496.69597 15207.7268 3647.90403 14944.26862 3889.38385 C 14680.84926 4130.99809 14526.64688 4463.78458 14527.01447 4825.0266 C 14526.65902 5185.9098 14680.87058 5518.6876 14944.29677 5760.56079 C 15207.76141 6002.29969 15581.26307 6154.03265 16018.56331 6154.07481 C 16455.50586 6154.0322 16828.68724 6002.34058 17091.97398 5760.56018 C 17355.30616 5518.73805 17509.71708 5185.90672 17509.71137 4825.02441 C 17509.70566 4463.78425 17355.23736 4130.99799 17091.94299 3889.38444 Z M 15323.81498 4825.01803 C 15322.87204 4326.32459 15395.77338 4047.75072 15519.50418 3892.77473 C 15642.71812 3737.96762 15816.15701 3707.06648 16018.5242 3704.54087 C 16221.23152 3707.06649 16394.7602 3737.96729 16517.89376 3892.7738 C 16641.54427 4047.74883 16714.19552 4326.33971 16712.91089 4825.03339 C 16714.21128 5323.70914 16641.56885 5602.27315 16517.92325 5757.24147 C 16394.79459 5912.04128 16221.26683 5942.93765 16018.55957 5945.45434 C 15816.1827 5942.93968 15642.75235 5912.04095 15519.53358 5757.24053 C 15457.72186 5679.80852 15408.72503 5571.72031 15375.1059 5420.30281 C 15358.27219 5344.53952 15345.35476 5258.1492 15336.6823 5159.41107 C 15332.34416 5110.03308 15329.07507 5057.64112 15326.91498 5001.96189 C 15325.83468 4974.12054 15325.03293 4945.48727 15324.51429 4916.00096 C 15324.25491 4901.25741 15324.06661 4886.31416 15323.94979 4871.15066 C 15323.89138 4863.56882 15323.85091 4855.9384 15323.8284 4848.25049 C 15323.81713 4844.40651 15323.81038 4840.55131 15323.80813 4836.68069 C 15323.807 4834.74538 15323.80701 4832.80775 15323.80815 4830.86573 C 15323.80928 4828.92398 15323.81479 4825.14149 15323.81495 4825.03059 Z M 16279.84175 1790.99566 L 16279.84553 2030.03222 L 16895.23946 2030.03222 L 16895.24918 2644.72832 L 17133.06908 2644.72832 L 17133.05938 2030.03222 L 17748.81114 2030.03222 L 17748.80736 1790.99566 L 17133.0556 1790.99566 L 17133.0459 1176.99734 L 16895.22598 1176.99734 L 16895.23569 1790.99566 Z" transform="matrix(0.9999978, 0.00208846, -0.00210427, 0.9999978, 3.06343689, -33.91186389)"/>
    </g>
  </g>
</svg>