<svg xmlns="http://www.w3.org/2000/svg" viewBox="0 0 500 500">
  <path fill="#ffdb00" d="M484.652 481.166l-.39-187.296-69.004.144-.02-9.863 17.366-.036-39.454-64.846-19.093 15.633-.014.03.003 49.306 17.947-.038.02 9.863-69.236.145-.02-9.863 16.919-.035-.538-258.44-16.919.035-.02-9.913-178.308.374.366 175.739c.002.872.343 1.68.97 1.992.311.163.695.205 1.137.072.444-.128.948-.429 1.505-.95 5.982-5.613 30.394-24.834 58.227-23.936 12.467.418 20.413 5.025 25.25 10.78 4.83 5.76 6.553 12.668 6.563 17.695l.18 86.764 18.956-.04.021 9.864-69.22.145-.02-9.863 15.927-.034-.168-80.657c-.013-6.203-2.045-11.113-5.192-14.467-3.141-3.358-7.398-5.158-11.852-5.148-13.856.029-35.65 12.87-42.25 23.645l.159 76.718 17.996-.038.02 9.897-69.203.145-.02-9.897 16.887-.035-.537-258.473-16.888.035-.02-9.846-72.747.153.969 465.512zm-.969-465.513l-110.195.231.425 204.39c0 .446.104.838.291 1.149.184.312.453.545.78.669.653.259 1.549.087 2.508-.696l55.996-45.634-18.476.038-.02-9.897 56.984-.12.02 9.898-15.843.033c-6.59.014-16.513 5.32-21.966 9.833-6.941 5.757-13.04 10.713-13.04 10.713l53.492 87.767 9.603-.02zM292.101 133.006l.14-.13c-12.387 11.45-29.96 18.641-50.554 18.653-20.61.075-38.23-7.042-50.67-18.44-12.44-11.406-19.741-27.135-19.76-44.225-.052-17.074 7.183-32.833 19.575-44.302 12.394-11.463 29.983-18.678 50.594-18.724 20.594-.04 38.198 7.099 50.632 18.512 12.435 11.414 19.746 27.146 19.781 44.22.036 17.09-7.211 32.85-19.597 44.306zm-83.288-44.22c.005 23.593 3.468 36.765 9.315 44.085 5.823 7.312 14 8.757 23.54 8.856 9.553-.14 17.729-1.619 23.517-8.955 5.813-7.344 9.21-20.531 9.1-44.125.011-23.592-3.44-36.764-9.283-44.084-5.82-7.311-14.001-8.756-23.555-8.855-9.539.14-17.71 1.618-23.502 8.954-2.906 3.67-5.204 8.788-6.774 15.955-.786 3.586-1.386 7.674-1.785 12.347-.2 2.336-.349 4.815-.445 7.45a193.211 193.211 0 00-.127 6.189 194.29 194.29 0 00-.002 1.63v.552zm45.36 143.446l-.023-11.309 29.005-.06-.06-29.082 11.208-.024.06 29.082 29.023-.06.024 11.308-29.022.06.06 29.05-11.209.023-.06-29.049z"/>
</svg>
