<svg viewBox="0 0 379 567" xmlns="http://www.w3.org/2000/svg">
  <path fill="#ffda00" d="M303.302 548.01v-18.894c20.406-.531 36.787-17.228 36.787-37.762s-16.381-37.23-36.787-37.762v-18.894c30.841.536 55.681 25.687 55.681 56.656 0 30.969-24.84 56.12-55.681 56.656m-57.681-56.656c0-30.969 24.84-56.12 55.681-56.656v18.894c-20.406.532-36.787 17.228-36.787 37.762s16.381 37.231 36.787 37.762v18.894c-30.841-.536-55.681-25.687-55.681-56.656m56.681 18.894c-10.435 0-18.894-8.459-18.894-18.894 0-10.435 8.459-18.894 18.894-18.894 10.435 0 18.894 8.459 18.894 18.894 0 10.435-8.459 18.894-18.894 18.894M245.618 302.42V192.29l-.084-.084c.052-1.039.084-2.088.084-3.149 0-1.06-.032-2.109-.084-3.159l.084-.084v-80.151l5.721-5.731 13.173-13.174V302.42c0 20.867 16.92 37.787 37.787 37.787 20.867 0 37.788-16.92 37.788-37.787V144.783l15.65-15.65a71.28 71.28 0 003.243-3.433v176.72c0 31.3-25.37 56.681-56.681 56.681-31.3 0-56.681-25.381-56.681-56.681m43.319-240.087h.011a18.828 18.828 0 0113.551-5.731c10.433 0 18.893 8.46 18.893 18.894v.199c-.01.85-.073 1.701-.199 2.519a18.858 18.858 0 01-5.532 10.833v.01l-22.945 22.946-9.311 9.299V75.695h.2v-.199c0-5.112 2.036-9.752 5.343-13.152l-.011-.011zm32.256 101.354V302.42c0 10.433-8.46 18.893-18.894 18.893-10.433 0-18.894-8.46-18.894-18.893V201.475l12.418-12.418 25.37-25.37zm-94.469-65.855l-11.063 11.064-7.148 7.148-6.214 6.214-10.203 10.202-3.149 3.16-13.362-13.362-6.214-6.214-7.148-7.148-11.074-11.074V75.695c0-1.595-.052-3.18-.147-4.744l24.573 24.582 13.362 13.363 13.362-13.363 24.772-24.771 35.152-35.143h.011c10.265-10.381 24.509-16.804 40.265-16.804 31.3 0 56.681 25.38 56.681 56.681v.199a58.557 58.557 0 01-.2 4.514c-1.133 13.876-7.274 26.325-16.605 35.551v.011h.01v.01l-2.298 2.289-56.682 56.681v-26.116c-.157-.042-.314-.084-.472-.136l.472-.472 37.788-37.788 7.704-7.704.126-.116v-.01c6.088-6.004 10.15-14.066 11.064-23.051v-3.663h.199v-.199c0-20.867-16.92-37.788-37.787-37.788-10.539 0-20.059 4.314-26.914 11.263v.011l-.125.115-.315.325-26.284 26.273-2.96 2.96-.283.284-16.123 16.122-2.771 2.771zm0 26.724v53.438l-1.28 1.281-9.783 9.782-13.362 13.362a18.832 18.832 0 01-13.362 5.532c-5.217 0-9.94-2.11-13.362-5.532l-13.362-13.362-9.783-9.782-1.281-1.281V124.546l37.788 37.787 9.793-9.783 3.569-3.579 11.084-11.074 13.341-13.341v-.965c.21.126.41.241.609.357l-.609.608zm0 106.739a56.56 56.56 0 01-13.351 8.912 56.085 56.085 0 01-21.277 5.437 52.608 52.608 0 01-3.159.095 56.297 56.297 0 01-24.426-5.532 56.462 56.462 0 01-13.362-8.912v.126l-94.468-94.468v-26.724l105.542 105.542a37.72 37.72 0 0016.931 9.793 37.583 37.583 0 009.783 1.281c3.38 0 6.665-.441 9.782-1.281a37.731 37.731 0 0017.068-9.928l.006.004 10.931-10.932v26.587zM56.681 163.677l37.787 37.787V302.42c0 10.433-8.46 18.893-18.893 18.893-10.434 0-18.894-8.46-18.894-18.893V163.677zm37.787-87.982v45.607l-9.111-9.1-23.144-23.145a18.832 18.832 0 01-5.532-13.362c0-10.433 8.46-18.894 18.894-18.894 5.216 0 9.94 2.11 13.362 5.532a18.835 18.835 0 015.531 13.362m37.788 163.557v63.168c0 31.3-25.37 56.681-56.681 56.681-31.301 0-56.682-25.381-56.682-56.681V75.695c0-31.311 25.381-56.681 56.682-56.681 15.65 0 29.82 6.34 40.086 16.595 10.255 10.266 16.595 24.436 16.595 40.086v83.395l-8.429-8.429-1.69-1.69-8.166-8.166-.609-.609V75.695c0-10.433-4.23-19.88-11.074-26.713-6.833-6.844-16.28-11.074-26.713-11.074-20.868 0-37.788 16.92-37.788 37.787V302.42c0 20.867 16.92 37.787 37.788 37.787 20.866 0 37.787-16.92 37.787-37.787v-82.062l18.894 18.894v-.221a71.926 71.926 0 003.243 3.464l-3.243-3.243zm192.161 179.823l-.054-.018c-4.892-1.616-8.67-4.45-11.315-7.956-.158-.21-.305-.42-.452-.64-.22-.295-.42-.599-.609-.903-.157-.242-.304-.494-.451-.746a8.969 8.969 0 01-.304-.556 20.511 20.511 0 01-.966-2.005 13.715 13.715 0 01-.43-1.091 10.91 10.91 0 01-.378-1.124 11.84 11.84 0 01-.294-1.007 23.695 23.695 0 01-.672-3.8 12.908 12.908 0 01-.063-.892 4.059 4.059 0 01-.031-.504c-.011-.315-.021-.63-.021-.945 0-.314.01-.63.021-.944 0-.168.01-.336.031-.504.011-.305.032-.598.063-.892.074-.777.178-1.533.326-2.278l.094-.441c.073-.367.157-.724.252-1.081.084-.346.189-.682.294-1.018.115-.368.241-.746.378-1.113.125-.367.273-.724.43-1.091.147-.357.315-.714.483-1.071.147-.315.304-.62.472-.924l.315-.567c.147-.252.294-.503.451-.745 2.604-4.125 6.624-7.526 12.061-9.405a78.657 78.657 0 005.175-1.753c28.445-10.853 48.651-38.386 48.651-70.641V80.985a73.41 73.41 0 00.199-5.489c0-41.734-33.84-75.575-75.574-75.575-20.972 0-39.94 8.544-53.638 22.336l-59.924 59.914-59.925-59.914C115.346 8.58 96.452.12 75.575.12 33.84.12 0 33.95 0 75.695V302.42c0 41.734 33.84 75.575 75.575 75.575 41.744 0 75.574-33.841 75.574-75.575v-47.896c-.199-.115-.399-.241-.598-.357l.598-.598v.955a74.789 74.789 0 0018.222 7.537 74.413 74.413 0 0014.842 2.424c1.564.095 3.139.147 4.724.147 1.585 0 3.17-.052 4.734-.147a74.413 74.413 0 0014.842-2.424 74.532 74.532 0 0018.211-7.537v-.965l.609.608c-.199.116-.399.231-.609.357v47.896c0 32.255 20.217 59.798 48.672 70.641a66.29 66.29 0 005.165 1.753c5.427 1.879 9.447 5.28 12.05 9.405.157.242.304.493.451.745l.315.567c.168.304.326.609.472.924.168.357.336.714.483 1.071.158.367.305.724.431 1.091.147.367.262.735.378 1.113.105.336.209.672.293 1.018.095.357.179.714.252 1.081l.095.441c.147.745.252 1.501.325 2.278.032.294.053.587.063.892.021.168.032.336.032.504.01.314.021.63.021.944 0 .315-.011.63-.021.945 0 .168-.011.336-.032.504-.01.304-.031.598-.063.892a23.695 23.695 0 01-.672 3.8c-.084.336-.178.672-.293 1.007a10.91 10.91 0 01-.378 1.124c-.126.367-.273.734-.431 1.091a18.443 18.443 0 01-.965 2.005c-.095.189-.2.378-.305.556-.147.252-.294.504-.451.746-.168.262-.336.525-.514.776a8.187 8.187 0 01-.515.714 7.187 7.187 0 01-.514.651c-2.603 3.233-6.214 5.836-10.822 7.358l-.025.009c-30.965 9.447-53.494 38.233-53.494 72.288 0 41.739 33.836 75.575 75.575 75.575 41.739 0 75.575-33.836 75.575-75.575 0-34.043-22.513-62.821-53.46-72.279"/>
</svg>
