<?xml version="1.0" encoding="utf-8"?>
<svg viewBox="0 0 733.22668 733.25336" xmlns="http://www.w3.org/2000/svg">
  <defs>
    <clipPath id="clipPath18" clipPathUnits="userSpaceOnUse">
      <path id="path16" d="M 0,600 H 800 V 0 H 0 Z"/>
    </clipPath>
  </defs>
  <g transform="matrix(1.33333325, 0, 0, -1.33333325, 0, 733.25335693)" id="g10">
    <g transform="matrix(0.1, 0, 0, 0.1, -0.1, -44.16283798)" id="g12">
      <path d="M 5498.71 0.5 L 5498.71 5498.9 L 0.5 5498.9 L 0.5 0.5 Z M 1.5 5497.9 L 5497.71 5497.9 L 5497.71 1.5 L 1.5 1.5 Z" style="fill: none;"/>
      <path d="M 4193.43222 2912.31915 L 4420.30476 3096.59811 L 4420.74959 3096.95942 L 4421.04727 3096.46972 L 4887.30727 2329.42972 L 4887.76908 2328.67001 L 4681.44002 2328.67001 L 4681.44002 2213.15001 L 5498.71002 2213.15001 L 5498.71002 2328.67001 L 5385.05908 2328.67001 L 5384.91297 2328.90996 L 4752.75297 3367.06996 L 4752.52505 3367.44426 L 4752.86624 3367.71929 C 4752.86624 3367.71929 4825.31496 3426.11825 4907.76292 3493.95659 C 4972.5845 3547.1742 5090.54269 3609.66067 5168.80002 3609.69 L 5356.18002 3609.69 L 5356.18002 3725.61 L 4681.44002 3725.61 L 4681.44002 3609.69 L 4901.45383 3609.69 L 4900.35436 3608.80117 L 4235.2065 3071.0829 C 4223.7071 3061.80032 4212.82926 3059.75438 4204.96551 3062.84382 C 4201.00362 3064.36441 4197.70154 3067.22367 4195.47515 3070.9804 C 4193.23484 3074.71654 4191.98881 3079.48001 4191.98001 3084.82007 L 4191.98001 5498.9 L 3584.78001 5498.9 L 3584.78001 5382.79 L 3785.41001 5382.79 L 3785.41001 2328.67 L 3584.78001 2328.67 L 3584.78001 2213.15 L 4404.80001 2213.15 L 4404.80001 2328.67 L 4191.97899 2328.67 L 4191.98001 2329.17102 L 4193.15978 2911.74835 Z M 4192.62682 2912.95327 L 4192.57828 2912.85158 L 4192.20877 2912.0774 L 4192.16024 2911.97571 L 4190.98001 2329.17304 L 4190.97697 2327.67 L 4403.80001 2327.67 L 4403.80001 2214.15 L 3585.78001 2214.15 L 3585.78001 2327.67 L 3786.41001 2327.67 L 3786.41001 5383.79 L 3585.78001 5383.79 L 3585.78001 5497.9 L 4190.98001 5497.9 L 4190.98001 3084.82 C 4191.0049 3079.35418 4192.32176 3074.33366 4194.61635 3070.46808 C 4196.945 3066.58938 4200.49571 3063.5201 4204.60397 3061.91146 C 4212.74056 3058.79675 4224.11244 3060.91918 4235.83304 3070.30352 L 4900.98302 3608.02351 L 4904.28143 3610.69 L 4682.44 3610.69 L 4682.44 3724.61 L 5355.18 3724.61 L 5355.18 3610.69 L 5168.8 3610.69 C 5090.30907 3610.60274 4972.03297 3548.00239 4907.12818 3494.72933 C 4824.68403 3426.89409 4752.23865 3368.49784 4752.23865 3368.49784 L 4751.21508 3367.67277 L 4751.89884 3366.54987 L 5384.05884 2328.38987 L 5384.49719 2327.67 L 5497.71001 2327.67 L 5497.71001 2214.15 L 4682.44001 2214.15 L 4682.44001 2327.67 L 4889.54721 2327.67 L 4888.16178 2329.94915 L 4421.90178 3096.98915 L 4421.00876 3098.45825 L 4419.67429 3097.37432 Z M 3225.82522 4119.68961 C 3372.92324 4254.6509 3459.15 4440.46434 3459.15 4642.25999 C 3459.15 4843.85564 3372.9364 5029.68028 3225.82582 5164.77232 C 3078.73429 5299.84686 2870.33775 5384.5746 2626.22024 5384.57999 C 2381.90276 5384.5748 2173.31924 5299.83551 2026.14322 5164.77257 C 1878.97152 5029.66621 1792.86517 4843.85568 1793.09001 4642.25999 C 1792.86457 4440.4635 1878.97176 4254.65091 2026.14381 4119.68937 C 2173.3203 3984.77126 2381.9033 3900.32544 2626.22001 3900.70999 C 2870.33808 3900.32493 3078.72258 3984.7715 3225.82523 4119.68962 L 3224.98724 4118.92104 L 3224.98724 4118.92076 Z M 3225.37267 4120.63153 L 3225.14924 4120.42654 C 3078.19679 3985.60336 2870.15028 3901.28833 2626.22083 3901.70999 C 2382.09223 3901.28871 2173.84583 3985.60326 2026.8196 4120.42645 C 1879.76331 4255.22969 1793.81822 4440.67374 1794.09 4642.25937 C 1793.81864 4843.64444 1879.76327 5029.08761 2026.81941 5164.03584 C 2173.84553 5299.00391 2382.09093 5383.61157 2626.22019 5383.57998 C 2870.14935 5383.61144 3078.18648 5298.99223 3225.14945 5164.03575 C 3372.11881 5029.0734 3458.15001 4843.64519 3458.15001 4642.25998 C 3458.15001 4440.77693 3372.21886 4255.41776 3225.37268 4120.63152 Z M 2236.43 4642.25763 C 2235.93201 4363.3423 2276.84333 4207.17597 2346.13836 4120.28057 C 2415.45912 4033.48679 2512.99273 4015.93232 2626.22626 4014.51012 C 2739.64981 4015.93232 2837.22071 4033.48677 2906.49403 4120.28044 C 2975.74147 4207.17575 3016.50809 4363.3449 3015.80999 4642.26121 C 3016.50808 4921.16752 2975.74146 5077.32925 2906.49403 5164.22081 C 2837.22072 5251.01072 2739.63731 5268.56268 2626.21375 5269.97989 C 2512.9802 5268.56269 2415.45909 5251.01071 2346.13834 5164.22068 C 2311.49503 5120.78509 2283.96528 5060.06837 2265.12746 4975.29251 C 2255.70999 4932.89589 2248.4761 4884.51443 2243.62447 4829.2834 C 2241.19886 4801.66659 2239.36988 4772.34763 2238.16219 4741.21031 C 2237.55838 4725.6414 2237.11007 4709.62209 2236.82028 4693.13408 C 2236.67539 4684.89002 2236.57018 4676.53068 2236.50499 4668.05197 C 2236.4724 4663.8126 2236.44982 4659.5443 2236.4373 4655.24566 C 2236.43104 4653.09634 2236.4273 4650.93987 2236.42608 4648.77566 C 2236.42547 4647.69355 2236.42549 4646.60972 2236.42614 4645.52388 C 2236.42679 4644.43796 2236.42999 4642.25849 2236.42999 4642.25849 Z M 2237.42999 4642.26203 C 2237.42993 4642.30615 2237.42679 4644.43899 2237.42614 4645.52447 C 2237.42549 4646.61002 2237.42547 4647.69327 2237.42608 4648.77509 C 2237.4273 4650.93872 2237.43104 4653.09401 2237.4373 4655.24275 C 2237.44982 4659.5402 2237.47238 4663.80611 2237.50497 4668.04428 C 2237.57014 4676.52055 2237.67529 4684.87494 2237.82014 4693.11651 C 2238.10981 4709.59932 2238.55782 4725.60804 2239.16145 4741.17156 C 2240.36854 4772.29712 2242.19598 4801.59172 2244.62065 4829.19591 C 2249.4687 4884.39676 2256.69261 4932.71354 2266.10368 4975.07566 C 2284.90878 5059.75348 2312.34129 5120.26681 2346.92006 5163.59703 C 2415.93823 5250.20674 2513.0685 5267.5705 2626.22001 5268.97989 C 2739.5589 5267.56993 2836.74154 5250.20688 2905.71213 5163.59743 C 2974.86672 5076.89131 3015.5243 4921.04254 3014.81001 4642.26375 C 3015.5243 4363.47496 2974.86672 4207.61369 2905.71211 4120.90382 C 2836.74151 4034.29062 2739.55889 4016.92509 2626.22002 4015.51013 C 2513.07119 4016.92507 2415.93827 4034.29075 2346.92008 4120.90421 C 2277.71787 4207.61447 2236.91554 4363.46865 2237.43 4642.25735 Z M 1063.4 5383.58 L 1063.4 2329.07 L 863.141 2329.07 L 863.141 2213.15 L 1682.77 2213.15 L 1682.77 2329.07 L 1469.37 2329.07 L 1469.37 3236.0321 L 1469.44454 3236.15264 C 1548.0712 3363.3572 1807.03393 3514.68 1971.47 3514.68 C 2024.38269 3514.68 2075.00386 3493.21026 2112.26117 3453.40306 C 2149.5369 3413.63105 2173.58092 3355.40067 2173.6 3282.03 L 2173.6 2328.67 L 1984.73 2328.67 L 1984.73 2213.15 L 2804.56 2213.15 L 2804.56 2328.67 L 2579.78 2328.67 L 2579.78 3354.17988 C 2579.78732 3413.50488 2559.58428 3494.98147 2502.49449 3563.04984 C 2445.35785 3631.11132 2351.42572 3685.64369 2203.71248 3690.86032 C 1873.85476 3702.2031 1584.07377 3475.80934 1513.01922 3409.65269 C 1506.34853 3403.48582 1500.26334 3399.88726 1494.9457 3398.36041 C 1489.60358 3396.79875 1484.87128 3397.31522 1481.10476 3399.27428 C 1473.54898 3403.10235 1469.39106 3412.8755 1469.36999 3423.28007 L 1469.36999 5498.90002 L 863.14099 5498.90002 L 863.14099 5383.58002 Z M 1064.4 5384.58 L 864.14099 5384.58001 L 864.14099 5497.90001 L 1468.36999 5497.90001 L 1468.36999 3423.28001 C 1468.43116 3412.67932 1472.86061 3402.4605 1480.64682 3398.38529 C 1484.58828 3396.37365 1489.68823 3395.82129 1495.22306 3397.39964 C 1500.65638 3398.97641 1506.94264 3402.68833 1513.69851 3408.91881 C 1584.71914 3475.04668 1874.14538 3701.30943 2203.67794 3689.86091 C 2351.15748 3684.71154 2444.72375 3630.35752 2501.72849 3562.40701 C 2558.71595 3494.53982 2578.802 3413.38477 2578.78 3354.18013 L 2578.78 2327.67001 L 2803.56 2327.67001 L 2803.56 2214.15001 L 1985.73 2214.15001 L 1985.73 2327.67001 L 2174.6 2327.67001 L 2174.6 3282.03001 C 2174.54314 3355.59135 2150.36398 3414.16368 2112.99101 3454.08669 C 2075.56418 3494.01232 2024.57809 3515.68001 1971.47 3515.68001 C 1806.78163 3515.68001 1547.39364 3364.05186 1468.59402 3236.67859 L 1468.37 3236.31633 L 1468.37 2328.07001 L 1681.77 2328.07001 L 1681.77 2214.15001 L 864.141 2214.15001 L 864.141 2328.07001 L 1064.4 2328.07001 Z M 3116.74 2947.01 L 3116.74 2603.84 L 3248.66 2603.84 L 3248.66 2947.01 L 3592.81 2947.01 L 3592.81 3079.61 L 3248.66 3079.61 L 3248.66 3423.17 L 3116.74 3423.17 L 3116.74 3079.61 L 2772.79 3079.61 L 2772.79 2947.01 Z M 2773.79 3078.61 L 3117.74 3078.61 L 3117.74 3422.17 L 3247.66 3422.17 L 3247.66 3078.61 L 3591.81 3078.61 L 3591.81 2948.01 L 3247.66 2948.01 L 3247.66 2604.84 L 3117.74 2604.84 L 3117.74 2948.01 L 2773.79 2948.01 Z" style="fill: none;"/>
      <g transform="matrix(8.63053131, 0, 0, 8.63053131, -724.23083496, 563.35443115)" id="g-1" style="">
        <g id="g-2">
          <g clip-path="url(#clipPath18)" id="g14">
            <g transform="translate(498.7471,328.2402)" id="g20">
              <path id="path22" style="fill-opacity: 1; fill-rule: nonzero; stroke: none; fill: rgb(255, 219, 0);" d="m 0,0 c -0.996,5.127 -2.906,9.452 -5.752,12.976 -3.523,4.325 -7.447,7.356 -11.769,9.087 -4.333,1.728 -8.723,2.594 -13.165,2.594 -6.673,0 -12.738,-1.392 -18.168,-4.173 -5.134,-2.78 -9.429,-7.139 -12.892,-13.073 -1.979,4.949 -4.881,8.994 -8.711,12.149 -4.762,3.395 -11,5.097 -18.727,5.097 -8.162,0 -14.8,-1.977 -19.933,-5.934 -2.84,-2.177 -5.858,-5.815 -9.059,-10.892 V 22.34 l -0.638,-0.094 -25.25,-3.735 -0.899,-0.136 v -50.916 c 0,-6.489 -0.867,-11.714 -2.59,-15.666 -3.316,-7.292 -9.468,-10.939 -18.444,-10.939 -7.012,0 -11.711,2.564 -14.115,7.696 -1.348,2.903 -2.027,7.229 -2.027,12.976 v 56.93 l -26.853,3.977 h -0.216 v -60.907 c 0,-11.554 1.45,-20.302 4.344,-26.232 5.177,-10.752 15.224,-16.13 30.132,-16.13 5.187,0 9.695,0.683 13.545,2.041 3.854,1.355 7.844,3.893 11.975,7.599 1.353,1.171 2.525,2.529 3.514,4.079 0.779,1.222 1.318,2.046 1.634,2.496 v -13.991 h 0.208 25.68 0.901 v 60.809 c 0,5.501 0.712,9.64 2.136,12.424 2.592,4.882 7.664,7.322 15.201,7.322 6.491,0 10.846,-2.44 13.073,-7.322 1.23,-2.721 1.851,-7.075 1.851,-13.069 v -60.164 h 26.608 v 60.164 c 0,4.508 0.709,8.371 2.135,11.584 2.779,6.057 7.818,9.088 15.107,9.088 6.303,0 10.629,-2.352 12.976,-7.046 1.241,-2.471 1.858,-5.625 1.858,-9.457 V -78.612 H 0.738 L 0.924,-14.93 C 0.924,-8.38 0.611,-3.4 0,0"/>
            </g>
            <g transform="translate(572.8506,276.5908)" id="g24">
              <path id="path26" style="fill-opacity: 1; fill-rule: nonzero; stroke: none; fill: rgb(255, 219, 0);" d="M 0,0 C 4.139,5.492 6.207,13.299 6.207,23.421 6.207,33.536 4.139,41.33 0,46.793 c -4.139,5.459 -10.074,8.192 -17.797,8.192 -7.728,0 -13.676,-2.733 -17.844,-8.192 -4.177,-5.463 -6.257,-13.257 -6.257,-23.372 0,-10.122 2.08,-17.929 6.257,-23.421 4.168,-5.493 10.116,-8.239 17.844,-8.239 7.723,0 13.658,2.746 17.797,8.239 m 21.137,-14.602 c -8.524,-10.523 -21.475,-15.791 -38.844,-15.791 -17.365,0 -30.313,5.268 -38.84,15.791 -8.529,10.531 -12.789,23.206 -12.789,38.023 0,14.568 4.26,27.196 12.789,37.881 8.527,10.679 21.475,16.023 38.84,16.023 17.369,0 30.32,-5.344 38.844,-16.023 C 29.66,50.617 33.93,37.989 33.93,23.421 33.93,8.604 29.66,-4.071 21.137,-14.602"/>
            </g>
            <g transform="translate(556.126,383.3701)" id="g28">
              <path id="path30" style="fill-opacity: 1; fill-rule: nonzero; stroke: none; fill: rgb(255, 219, 0);" d="M 0,0 H 31.285 V -15.604 H -29.098 C -28.996,0.09 0,0 0,0"/>
            </g>
            <g transform="translate(139.7202,283.5449)" id="g32">
              <path id="path34" style="fill-opacity: 1; fill-rule: nonzero; stroke: none; fill: rgb(255, 219, 0);" d="m 0,0 c -0.356,7.586 -0.121,15.357 0.7,23.32 0.06,0.943 0.094,1.88 0.166,2.827 0.475,6.316 1.129,12.539 1.952,18.652 8.6,63.824 35.701,116.034 71.07,143.506 C 54.138,184.854 35.389,175.461 17.641,160.119 -12.925,133.709 -32.922,96.992 -42.358,49.965 -48.25,20.591 -48.532,-7.806 -43.205,-35.23 L 0.07,-4.367 C 0.041,-2.911 0.011,-1.46 0,0"/>
            </g>
            <g transform="translate(220.7358,281.8887)" id="g36">
              <path id="path38" style="fill-opacity: 1; fill-rule: nonzero; stroke: none; fill: rgb(255, 219, 0);" d="m 0,0 c 0.558,-4.699 1.77,-8.031 3.634,-10.014 3.289,-3.523 9.374,-5.28 18.252,-5.28 5.221,0 9.364,0.764 12.435,2.314 3.075,1.54 4.616,3.862 4.616,6.957 0,2.966 -1.239,5.216 -3.714,6.765 -2.479,1.541 -11.692,4.198 -27.64,7.972 -11.486,2.84 -19.574,6.395 -24.271,10.657 -4.697,4.203 -7.044,10.26 -7.044,18.172 0,9.33 3.669,17.349 11.01,24.056 7.34,6.706 17.663,10.059 30.983,10.059 12.63,0 22.926,-2.516 30.887,-7.559 7.956,-5.035 12.528,-13.733 13.7,-26.093 H 36.429 c -0.37,3.4 -1.333,6.087 -2.878,8.065 -2.917,3.582 -7.868,5.374 -14.874,5.374 -5.769,0 -9.869,-0.891 -12.318,-2.687 -2.445,-1.791 -3.672,-3.888 -3.672,-6.299 0,-3.031 1.301,-5.226 3.91,-6.584 2.595,-1.422 11.791,-3.862 27.578,-7.326 10.522,-2.471 18.418,-6.21 23.67,-11.219 5.198,-5.064 7.79,-11.396 7.79,-18.999 0,-10.009 -3.73,-18.185 -11.2,-24.518 -7.458,-6.336 -18.991,-9.503 -34.599,-9.503 -15.909,0 -27.661,3.353 -35.249,10.06 -7.589,6.706 -11.38,15.247 -11.38,25.63 z"/>
            </g>
            <g transform="translate(705.3154,347.9189)" id="g40">
              <path id="path42" style="fill-opacity: 1; fill-rule: nonzero; stroke: none; fill: rgb(255, 219, 0);" d="m 0,0 -43.813,-31.246 c 0,-0.183 0.006,-0.364 0.008,-0.552 0.36,-7.585 0.121,-15.357 -0.697,-23.32 -0.062,-0.943 -0.094,-1.881 -0.168,-2.827 -1.289,-17.157 -3.898,-33.609 -7.648,-49.132 -12.041,-49.842 -35.821,-90.069 -65.373,-113.025 19.752,3.456 38.498,12.844 56.248,28.185 30.566,26.411 50.564,63.128 59.998,110.16 C 4.201,-53.611 4.656,-26.364 0,0"/>
            </g>
            <g transform="translate(212.9644,217.9883)" id="g44">
              <path id="path46" style="fill-opacity: 1; fill-rule: nonzero; stroke: none; fill: rgb(255, 219, 0);" d="M 0,0 C 0,0.415 -0.027,0.806 -0.083,1.171 -0.138,1.536 -0.259,1.825 -0.445,2.033 -1.004,2.69 -1.664,3.17 -2.428,3.468 -3.19,3.761 -4.018,3.909 -4.911,3.909 h -1.087 c -0.28,0 -0.587,-0.051 -0.921,-0.157 v -7.773 h 3.182 c 1.152,0.174 2.063,0.629 2.733,1.359 C -0.333,-1.932 0,-1.045 0,0 m 8.483,0 c 0,-1.079 -0.129,-2.105 -0.39,-3.078 C 7.832,-4.055 7.386,-5.043 6.753,-6.054 5.527,-8.002 3.704,-9.44 1.284,-10.383 -0.762,-11.182 -3.124,-11.58 -5.802,-11.58 l -1.117,0.157 v -15.234 h -8.483 V 4.694 c 0,1.77 0.501,3.277 1.507,4.508 1.004,1.236 2.417,1.923 4.241,2.063 h 8.315 C 1.639,10.849 4.056,9.508 5.917,7.25 7.628,5.161 8.483,2.746 8.483,0"/>
            </g>
            <g transform="translate(249.4038,210.2666)" id="g48">
              <path id="path50" style="fill-opacity: 1; fill-rule: nonzero; stroke: none; fill: rgb(255, 219, 0);" d="m 0,0 c 0,3.162 -0.987,5.866 -2.961,8.111 -1.972,2.242 -4.353,3.363 -7.136,3.363 -2.786,0 -5.165,-1.121 -7.137,-3.363 -1.974,-2.245 -2.961,-4.949 -2.961,-8.111 0,-3.167 0.979,-5.857 2.938,-8.086 1.957,-2.225 4.344,-3.337 7.16,-3.337 2.753,0 5.124,1.112 7.115,3.337 C -0.994,-5.857 0,-3.167 0,0 m 7.161,0 c 0,-5.356 -1.683,-9.945 -5.05,-13.77 -3.366,-3.825 -7.434,-5.739 -12.208,-5.739 -4.743,0 -8.805,1.906 -12.186,5.713 -3.383,3.808 -5.072,8.405 -5.072,13.796 0,5.425 1.683,10.047 5.048,13.876 3.367,3.824 7.435,5.734 12.21,5.734 4.774,0 8.842,-1.91 12.208,-5.734 C 5.478,10.047 7.161,5.425 7.161,0"/>
            </g>
            <g transform="translate(300.2451,229.4609)" id="g52">
              <path id="path54" style="fill-opacity: 1; fill-rule: nonzero; stroke: none; fill: rgb(255, 219, 0);" d="m 0,0 -7.917,-35.312 c -0.422,-0.904 -1.139,-1.626 -2.152,-2.165 -1.014,-0.539 -2.075,-0.806 -3.183,-0.806 -0.881,0 -1.683,0.182 -2.411,0.548 -0.726,0.365 -1.299,0.946 -1.721,1.744 l -0.917,2.139 -3.56,20.448 h -0.573 l -3.27,-20.448 c -0.422,-1.32 -1.083,-2.389 -1.98,-3.209 -0.9,-0.814 -2.019,-1.222 -3.356,-1.222 h -0.747 c -0.995,0.136 -1.836,0.425 -2.524,0.857 -0.689,0.438 -1.224,1.053 -1.606,1.856 l -8.148,35.465 h 8.759 l 4.033,-24.722 0.749,-0.009 3.222,19.411 c 0,1.321 0.361,2.522 1.086,3.6 0.726,1.078 1.796,1.774 3.21,2.085 h 0.687 c 1.488,0 2.748,-0.557 3.78,-1.669 1.032,-1.112 1.547,-2.415 1.547,-3.913 l 3.698,-19.25 h 0.577 L -8.575,0 Z"/>
            </g>
            <g transform="translate(323.481,191.3311)" id="g56">
              <path id="path58" style="fill-opacity: 1; fill-rule: nonzero; stroke: none; fill: rgb(255, 219, 0);" d="m 0,0 h -15.377 c -1.683,0.212 -3.039,0.887 -4.073,2.037 -1.033,1.147 -1.549,2.484 -1.549,4.016 v 25.141 c 0,1.596 0.363,2.869 1.091,3.808 0.726,0.938 1.893,1.809 3.5,2.606 0.229,0 0.581,0.042 1.061,0.131 0.477,0.085 0.755,0.132 0.832,0.132 H 0 v -7.462 h -12.278 v -6.885 h 11.705 v -7.25 H -12.278 V 7.407 L 0,7.407 Z"/>
            </g>
            <g transform="translate(355.7837,191.3311)" id="g60">
              <path id="path62" style="fill-opacity: 1; fill-rule: nonzero; stroke: none; fill: rgb(255, 219, 0);" d="m 0,0 h -10.213 l -9.466,16.431 c 0,0.14 -0.059,0.416 -0.174,0.837 -0.115,0.416 -0.172,0.729 -0.172,0.937 0,1.601 0.9,2.798 2.698,3.6 2.102,0.73 3.347,1.218 3.728,1.461 1.34,0.763 2.008,1.807 2.008,3.128 0,0.87 -0.286,1.685 -0.859,2.453 -0.422,0.556 -1.111,1.18 -2.066,1.877 h -5.796 V 0 h -8.548 v 32.965 c 0.191,1.252 0.747,2.313 1.664,3.183 0.919,0.871 2.026,1.41 3.327,1.618 h 8.893 c 3.213,0 6.044,-1.113 8.492,-3.337 2.447,-2.229 3.671,-4.767 3.671,-7.619 0,-1.46 -0.305,-2.764 -0.916,-3.91 -0.766,-1.358 -1.741,-2.504 -2.927,-3.442 -0.995,-0.803 -2.39,-1.584 -4.188,-2.348 z"/>
            </g>
            <g transform="translate(213.6084,471.8496)" id="g64">
              <path id="path66" style="fill-opacity: 1; fill-rule: nonzero; stroke: none; fill: rgb(255, 219, 0);" d="m 0,0 c -35.369,-27.472 -62.47,-79.682 -71.07,-143.506 -0.823,-6.113 -1.477,-12.336 -1.952,-18.651 -0.072,-0.947 -0.106,-1.885 -0.166,-2.827 0.017,0.182 0.03,0.369 0.051,0.555 0.217,2.084 0.473,4.143 0.766,6.181 0.092,0.649 0.212,1.281 0.312,1.923 0.217,1.375 0.429,2.751 0.68,4.104 0.142,0.769 0.309,1.52 0.464,2.283 0.245,1.203 0.482,2.408 0.751,3.587 0.185,0.812 0.397,1.601 0.593,2.404 0.276,1.107 0.547,2.223 0.851,3.319 0.222,0.819 0.473,1.625 0.715,2.432 0.308,1.049 0.616,2.096 0.949,3.129 0.265,0.819 0.55,1.621 0.832,2.431 0.346,0.998 0.694,2 1.063,2.985 0.301,0.806 0.624,1.6 0.938,2.393 0.384,0.96 0.773,1.924 1.18,2.87 0.337,0.789 0.692,1.562 1.044,2.339 0.268,0.586 0.514,1.185 0.79,1.762 0.153,0.318 0.323,0.619 0.475,0.937 0.459,0.943 0.939,1.872 1.422,2.802 0.418,0.798 0.832,1.601 1.265,2.386 0.514,0.925 1.045,1.838 1.584,2.75 0.445,0.76 0.887,1.524 1.352,2.271 0.564,0.909 1.158,1.804 1.748,2.7 0.478,0.721 0.945,1.448 1.437,2.156 0.624,0.9 1.274,1.774 1.923,2.657 0.501,0.676 0.991,1.363 1.507,2.033 0.69,0.892 1.412,1.758 2.131,2.632 0.515,0.629 1.019,1.27 1.549,1.89 0.773,0.899 1.579,1.769 2.379,2.648 0.516,0.569 1.021,1.146 1.552,1.706 0.908,0.955 1.857,1.885 2.802,2.815 0.458,0.454 0.899,0.921 1.371,1.371 1.434,1.362 2.907,2.704 4.422,4.015 10.867,9.389 21.818,15.608 32.855,18.69 V 0.09 C 0.378,0.055 0.187,0.034 0,0"/>
            </g>
            <g transform="translate(652.9971,240.8418)" id="g68">
              <path id="path70" style="fill-opacity: 1; fill-rule: nonzero; stroke: none; fill: rgb(255, 219, 0);" d="m 0,0 c 3.75,15.523 6.359,31.976 7.648,49.132 0.075,0.946 0.106,1.885 0.168,2.827 C 7.799,51.776 7.785,51.594 7.766,51.407 7.566,49.506 7.326,47.63 7.066,45.771 6.996,45.274 6.922,44.777 6.848,44.285 6.613,42.702 6.352,41.132 6.068,39.578 6.018,39.294 5.975,39.005 5.918,38.717 5.578,36.921 5.205,35.146 4.803,33.39 4.707,32.965 4.604,32.549 4.506,32.129 4.162,30.693 3.797,29.268 3.412,27.854 3.309,27.472 3.207,27.086 3.1,26.704 2.617,25.002 2.107,23.316 1.566,21.656 1.461,21.347 1.355,21.046 1.25,20.735 0.783,19.344 0.291,17.964 -0.219,16.597 -0.377,16.186 -0.529,15.773 -0.686,15.366 -1.314,13.749 -1.963,12.145 -2.654,10.569 -2.697,10.477 -2.742,10.383 -2.783,10.289 -3.439,8.808 -4.127,7.348 -4.838,5.904 -5.033,5.51 -5.23,5.11 -5.432,4.716 -6.121,3.35 -6.836,1.995 -7.58,0.666 -7.668,0.505 -7.752,0.34 -7.844,0.179 c -0.828,-1.469 -1.697,-2.917 -2.588,-4.347 -0.224,-0.361 -0.455,-0.714 -0.683,-1.07 -0.748,-1.171 -1.516,-2.322 -2.305,-3.464 -0.205,-0.288 -0.396,-0.585 -0.603,-0.874 -0.102,-0.14 -0.196,-0.289 -0.297,-0.433 -0.28,-0.39 -0.59,-0.76 -0.875,-1.146 -0.895,-1.223 -1.809,-2.433 -2.754,-3.621 -0.485,-0.603 -0.979,-1.197 -1.473,-1.791 -0.889,-1.066 -1.791,-2.119 -2.721,-3.159 -0.527,-0.586 -1.052,-1.175 -1.591,-1.753 -0.998,-1.069 -2.03,-2.118 -3.075,-3.162 -0.49,-0.488 -0.966,-0.985 -1.468,-1.468 -1.557,-1.495 -3.153,-2.967 -4.805,-4.398 -1.35,-1.163 -2.697,-2.275 -4.049,-3.345 -0.252,-0.2 -0.504,-0.374 -0.756,-0.573 -1.107,-0.857 -2.215,-1.706 -3.324,-2.5 -0.195,-0.14 -0.394,-0.263 -0.592,-0.403 -1.17,-0.828 -2.338,-1.63 -3.508,-2.382 -0.123,-0.08 -0.246,-0.148 -0.369,-0.228 -1.25,-0.794 -2.5,-1.554 -3.748,-2.267 -0.056,-0.03 -0.107,-0.056 -0.16,-0.085 -5.424,-3.073 -10.871,-5.374 -16.336,-6.902 -0.004,0 -0.01,0 -0.015,-0.004 v -63.913 c 0.187,0.029 0.378,0.05 0.566,0.085 C -35.82,-90.069 -12.041,-49.842 0,0"/>
            </g>
          </g>
        </g>
      </g>
    </g>
  </g>
</svg>