<svg xmlns="http://www.w3.org/2000/svg" viewBox="0 0 733.227 733.253">
  <path fill="#ffdb00" d="M149.76 173.945c-5.27 3.334 2.165-1.52-4.898.927-41.396 9.162-74.937 39.66-97.324 74.522-24.73 39.878-36.556 87.023-37.525 133.706-.165 16.15 1.27 32.321 4.354 48.177l49.797-35.513c-2.206-39.155 6.42-80.673 32.419-111.116 14.159-16.528 31.947-31.066 53.177-37.15v-73.553zm28.922 287.912c3.202 0 5.941 1.292 8.21 3.872 2.272 2.583 3.409 5.695 3.409 9.334 0 3.644-1.144 6.74-3.432 9.304-2.291 2.56-5.02 3.84-8.187 3.84-3.24 0-5.987-1.28-8.239-3.84-2.254-2.565-3.38-5.66-3.38-9.304 0-3.64 1.134-6.751 3.406-9.334 2.269-2.58 5.007-3.872 8.213-3.872zm-37.215-.18h1.25c1.027 0 1.98.171 2.857.509.88.342 1.64.894 2.283 1.65.214.24.353.572.416.992.065.42.096.87.096 1.348 0 1.202-.384 2.222-1.156 3.062-.771.84-1.819 1.365-3.145 1.565h-3.662v-8.946a3.52 3.52 0 011.06-.18zm143.783-8.284c-1.497.239-2.773.859-3.83 1.86a6.211 6.211 0 00-1.914 3.665v37.934h9.836v-35.356h6.67c1.099.802 1.891 1.52 2.377 2.16.659.884.99 1.821.99 2.823 0 1.52-.77 2.721-2.313 3.6-.438.279-1.87.84-4.289 1.68-2.069.924-3.105 2.301-3.105 4.143 0 .24.067.6.2 1.078.131.485.198.802.198.963l10.893 18.909h11.754l-12.479-19.69c2.07-.879 3.674-1.777 4.819-2.701a13.357 13.357 0 003.369-3.961c.703-1.319 1.053-2.82 1.053-4.5 0-3.282-1.41-6.203-4.225-8.768-2.817-2.559-6.074-3.84-9.772-3.84zm-26.408-.122c-.089 0-.408.055-.957.153-.553.102-.96.15-1.223.15-1.85.917-3.192 1.919-4.027 2.998-.838 1.08-1.254 2.547-1.254 4.383v28.932c0 1.763.592 3.3 1.781 4.62 1.19 1.324 2.75 2.1 4.688 2.345h17.695v-8.524h-14.129v-10.203h13.469v-8.344h-13.469v-7.922h14.129v-8.588zm-121.582-.058c-2.1.161-3.726.95-4.881 2.373-1.158 1.416-1.734 3.15-1.734 5.187v36.079h9.761V479.32l1.285.182c3.082 0 5.8-.46 8.155-1.379 2.784-1.085 4.882-2.739 6.293-4.98.728-1.164 1.242-2.3 1.543-3.424.3-1.12.449-2.302.449-3.543 0-3.16-.984-5.938-2.953-8.342-2.142-2.598-4.923-4.142-8.35-4.621zm85.072-.537c-1.627.358-2.858 1.158-3.693 2.398-.835 1.24-1.25 2.623-1.25 4.143l-3.707 22.338-.864-.012-4.64-28.447h-10.08l9.377 40.81c.44.924 1.054 1.631 1.847 2.135.792.497 1.76.83 2.905.986h.86c1.54 0 2.827-.47 3.862-1.406 1.032-.943 1.792-2.172 2.278-3.691l3.763-23.532h.66l4.096 23.532 1.055 2.46c.485.919 1.145 1.586 1.98 2.006.838.422 1.762.631 2.776.631a7.694 7.694 0 003.662-.927c1.165-.62 1.99-1.45 2.476-2.49l9.112-40.635h-9.87l-4.765 28.275h-.664l-4.256-22.152c0-1.724-.592-3.223-1.78-4.502-1.187-1.28-2.637-1.92-4.349-1.92zm-43.65-.18c-5.495 0-10.177 2.197-14.051 6.598-3.872 4.406-5.809 9.726-5.809 15.969 0 6.203 1.943 11.493 5.836 15.875 3.89 4.38 8.566 6.574 14.024 6.574 5.493 0 10.175-2.204 14.048-6.606 3.875-4.401 5.811-9.68 5.811-15.844 0-6.242-1.936-11.562-5.81-15.968-3.874-4.4-8.556-6.598-14.05-6.598zm363.341-117.03c8.888 0 15.718 3.145 20.48 9.427 4.764 6.286 7.143 15.256 7.143 26.896 0 11.648-2.38 20.631-7.142 26.951-4.763 6.321-11.593 9.48-20.48 9.48-8.893 0-15.737-3.159-20.534-9.48-4.806-6.32-7.2-15.303-7.2-26.95 0-11.64 2.394-20.61 7.2-26.897 4.797-6.282 11.64-9.426 20.533-9.426zm-167.421-24.534c-9.393 0-17.031 2.274-22.938 6.828-3.268 2.505-6.74 6.69-10.424 12.533v-16.695l-.734.107-29.057 4.299-1.033.156v58.592c0 7.467-.998 13.48-2.98 18.027-3.816 8.391-10.896 12.588-21.225 12.588-8.069 0-13.476-2.952-16.242-8.857-1.551-3.34-2.334-8.319-2.334-14.932v-65.512l-30.9-4.576h-.249v70.088c0 13.296 1.668 23.362 4.998 30.186 5.958 12.372 17.519 18.562 34.674 18.562 5.97 0 11.158-.787 15.588-2.35 4.435-1.559 9.026-4.479 13.78-8.744a21.368 21.368 0 004.044-4.693c.897-1.406 1.516-2.355 1.88-2.873v16.102H342.276V359.79c0-6.33.819-11.093 2.457-14.297 2.983-5.618 8.82-8.426 17.493-8.426 7.469 0 12.482 2.808 15.044 8.426 1.416 3.131 2.13 8.142 2.13 15.04v69.234h30.619v-69.235c0-5.187.816-9.633 2.457-13.33 3.197-6.97 8.997-10.457 17.384-10.457 7.253 0 12.231 2.706 14.932 8.108 1.428 2.843 2.137 6.473 2.137 10.882v74.032h31.148l.215-73.282c0-7.537-.36-13.269-1.063-17.181-1.146-5.9-3.344-10.877-6.619-14.932-4.054-4.977-8.57-8.465-13.543-10.457-4.986-1.988-10.038-2.984-15.15-2.984-7.679 0-14.658 1.6-20.906 4.8-5.908 3.2-10.851 8.217-14.836 15.045-2.278-5.695-5.616-10.35-10.024-13.98-5.48-3.907-12.659-5.865-21.55-5.865zm-196.278-.748c-15.328 0-27.206 3.859-35.652 11.576-8.448 7.718-12.67 16.945-12.67 27.681 0 9.105 2.7 16.074 8.105 20.91 5.405 4.905 14.713 8.996 27.93 12.264 18.352 4.343 28.954 7.4 31.807 9.174 2.848 1.783 4.273 4.372 4.273 7.785 0 3.562-1.772 6.234-5.31 8.006-3.534 1.784-8.303 2.662-14.31 2.662-10.217 0-17.218-2.022-21.003-6.076-2.145-2.282-3.541-6.116-4.183-11.523h-30.83c0 11.948 4.362 21.777 13.095 29.494 8.732 7.718 22.254 11.576 40.56 11.576 17.961 0 31.233-3.645 39.815-10.936 8.596-7.287 12.889-16.695 12.889-28.213 0-8.749-2.983-16.035-8.965-21.863-6.044-5.764-15.128-10.067-27.236-12.91-18.167-3.986-28.75-6.793-31.737-8.43-3.002-1.562-4.498-4.09-4.498-7.578 0-2.774 1.411-5.187 4.225-7.248 2.818-2.067 7.537-3.092 14.176-3.092 8.062 0 13.758 2.062 17.115 6.184 1.778 2.276 2.887 5.369 3.312 9.281h30.4c-1.348-14.223-6.61-24.231-15.765-30.025-9.16-5.803-21.009-8.7-35.543-8.7zm363.803-.424c-19.983 0-34.883 6.149-44.695 18.437-9.815 12.296-14.717 26.828-14.717 43.592 0 17.05 4.902 31.636 14.717 43.754 9.812 12.11 24.712 18.172 44.695 18.172 19.987 0 34.89-6.063 44.7-18.172 9.807-12.118 14.72-26.703 14.72-43.754 0-16.764-4.913-31.296-14.72-43.592-9.81-12.288-24.713-18.437-44.7-18.437zm1.13-33.895s-33.366-.104-33.484 17.955h69.485v-17.955zm119.647 114.84c-.465 4.884-.465 4.884 0 0zm52.032-74.045l-50.418 35.955c1.928 40.454-9.16 83.27-37.966 112.897-13.202 13.751-29.139 25.71-47.7 30.978v73.547c42.052-7.243 76.6-37.25 99.818-71.726 25.834-39.576 38.233-86.961 39.85-133.909.376-15.98-.8-32-3.584-47.742z"/>
</svg>
