<svg xmlns="http://www.w3.org/2000/svg" viewBox="0 0 500 500">
  <path fill="#ffdb00" d="M430.083 233.361s1.867-3.002-.934-4.673c-3.064-1.812-5.949.166-8.792 3.02-2.424 2.406-4.06 8.523-4.06 8.523 8.802-1.216 13.786-6.87 13.786-6.87m-51.587-3.098s-6.148-3.212-11.594 6.109c-2.664 4.542-2.108 12.357 2.025 12.865 2.665.341 8.54-1.033 10.943-7.37 2.392-6.353 3.557-8.943-1.374-11.604m-109.837 5.33s-7.606 12.007-.409 14.563c7.197 2.555 11.992-8.122 12.401-8.56.399-.437 5.592-8.34-.136-10.79-5.729-2.442-11.856 4.787-11.856 4.787m-25.83-4.113s3.64-2.083 6.893-3.343c5.193-2.013 10.02-5.584 10.796-6.66 2.476-3.414 2.801-4.893-.137-6.013-2.927-1.111-6.861 1.4-9.578 3.335-3.777 2.678-7.974 12.68-7.974 12.68m-69.758-.892s-8.142-2.004-12.129 9.11c-3.462 9.68 4.134 11.456 4.134 11.456s6.62.578 10.271-7.561c5.718-12.786-2.014-12.891-2.014-12.891M50.707 256.938s-6.714 4.464-7.89 9.18c-1.384 5.628.127 8.717 5.236 8.612 4.375-.096 5.854-2.791 6.127-4.454.252-1.654.64-4.84-.934-9.11-1.08-2.898-2.539-4.228-2.539-4.228m17.857-45.482c-.734-1.138-3.064-4.332-3.997-4.551-.934-.219-1.868.893-1.868.893s-.398.997-1.196 6.336c-.797 5.338 0 8.778 0 8.778s.063.936 1.333.779c2.234-.272 7.868-3.895 7.868-3.895s-.409-5.662-2.14-8.34m147.04 13.46s-13.199 13.784-13.745 14.125c-.524.341 6.012 3.78 6.012 3.78s2.529-6.677 3.19-7.893c.671-1.225 4.542-10.012 4.542-10.012m-44.484 36.897s-8.32 2.678-10.985 5.12c-2.654 2.459-2.79 3.553-2.392 4.673.399 1.111 1.459 3.676 7.208 1.567 5.718-2.118 6.17-11.36 6.17-11.36m123.349-48.887l-.263 1.987.735.936s.23 4.674-1.459 6.161l.021 1.786s3.116-.245 5.162-1.672c5.036-3.448 3.777-4.288 5.613-8.2.315-.656-9.81-.998-9.81-.998m-19.682.21l-.136 1.996.797.892s.546 4.665-1.07 6.223l.137 1.776s3.095-.385 5.067-1.899c4.816-3.65 3.473-4.446 5.067-8.436.273-.674-9.862-.552-9.862-.552m-146.368 0l-.125 1.996.797.892s-.273 5.444-1.868 6.1c-1.605.683-.136.683-.136.683s3.997.656 6.127-.683c2.13-1.313 5.739-4.56 7.334-8.541.262-.674-12.129-.447-12.129-.447m-106.657-4.314c4.9-1.462 11.897-7.877 11.897-7.877s-.356 4.656 1.396 9.032c1.741 4.384 9.4 14.265 9.4 14.265s4.323 4.778 6.41 8.35c2.393 4.112 6.925 10.667 6.925 10.667s4.669-6.213 8.047-11.097c4.48-6.467 4.721-9.924 4.721-9.924s-6.767 5.015-12.411 4.376c-3.83-.43-3.82-5.365-3.82-5.365s-.03-9.224 1.711-14.178c1.752-4.962 5.067-4.393 6.82-4.393 1.752 0 9.253 3.29 10.848 15.298l11.54-8.07s3.232-3.342 9.999-5.793c4.008-1.435 15.59-4.21 30.394-3.99L411.701 200s42.439.683 62.646 12.235c18.664 10.677 14.793 18.028 14.793 18.028s-2.938 9.863-14.258 10.117c-5.068.096-12.454-3.623-12.454-3.623s-.87 4.157-3.01 8.612c-2.13 4.454-7.513 13.87-7.513 13.87l-14.562-.227 13.67-25.397-33.184 22.098s-2.844 2.03-7.754 2.127c-9.84.21-8.645-8.463-8.645-8.463l-9.19 4.953s-6.841 4.647-9.359 4.682c-3.252.044-6.043-4.375-4.983-7.596l-1.753.297s-4.333 9.102-12.033 8.236c-8.194-.937-7.491-6.958-7.491-6.958l-2.11.394s-2.937 2.214-5.98 3.44c-2.517.988-5.696 2.546-7.081 1.671-1.375-.875-2.057-1.61-2.738-3.86-1.396-4.594-2.455-15.612-3.505-18.675-.42-1.252-3.346-.368-3.346-.368s-3.987 2.704-6.789 10.283c-2.8 7.588-5.004 13.731-5.004 13.731h-13.293l7.092-17.223 3.054-7.132-1.732.113L290 255.04s-5.949 4.28-9.463 4.455c-4.522.218-4.931-5.225-4.931-5.225s-7.208 4.743-11.426 4.743c-4.228 0-8.844.333-9.264-5.32l.137-5.05c-3.452 2.555-11.646 7.579-11.646 7.579s-3 2.791-8.267 2.791c-5.278 0-6.83-2.87-7.523-6.073-.703-3.212-.545-7.57-.545-7.57l-10.45 1.969s-1.752 6.126-1.406 7.587c.346 1.453-.273 5.356-.273 5.356h-15.81l5.686-11.683-.094-1.558-7.24-3.115-12.348 8.664s-2.518 3.317-3.85 8.165c-1.931 7.089-6.663 10.003-12.727 12.865-5.204 2.45-10.617 2.704-13.072-.228-2.445-2.914 2.14-8.034 4.805-9.679 5.466-3.326 12.317-7.238 12.317-7.238l1.542-5.54s-9.767 7.956-16.786 9.015c-9.6 1.435-11.384-3.448-11.73-5.785-.357-2.337-.41-5.234-.41-5.234s-2.129 1.226-6.388 3.125c-5.477 2.407-5.477 2.371-13.88 5.785 0 0-4.25 2.739-8.793 2.546-7.722-.34-5.466-7.228-5.466-7.228l4.407-6.118 4.605-10.493s-3.85 2.039-7.344 2.905c-3.493.876-6.998 2.337-6.998 2.337s-9.746 11.964-13.995 14.59c-4.239 2.633-9.348 4.296-13.199 4.007-3.84-.288-6.651-2.45-6.746-6.633-.031-2.486.756-9.382.756-9.382l-7.397 2.38.336-.927 23.459-18.038 2.927.35 2.654.333s-5.581 4.27-7.333 7.194c-1.752 2.923-4.197 10.213.703 11.955 4.889 1.759 11.97-3.693 11.037-6.24 0 0-4.04.717-4.742-1.926-.703-2.616 1.867-6.878 3.493-8.174 2.718-2.135 6.799-3.667 9.118-2.468 2.8 1.453 1.899 5.4 1.196 6.555v2.678s7.07-.113 11.058-4.56c2.864-3.176 5.214-5.697 8.015-5.985 2.802-.29 6.652 0 6.652 0l4.543.586c0 1.453-9.096 20.715-9.096 20.715s-.703 2.556.692 2.914c2.55.63 4.564-.875 4.564-.875s10.764-3.58 11.698-4.577c0 0 3.326-10.344 9.453-13.784 4.186-2.345 7.533-3.518 10.67-4.095 3.147-.596 9.872-.578 12.663 3.098l.672-3.457 13.188-.219-5.855 19.455s2.613-.761 5.592-2.993c3.379-2.53 12.58-11.587 15.738-15.456 5.938-7.298 13.712-15.227 13.712-15.227l.944-.57 7.733.22c-10.083 21.476-10.481 20.583-11.552 24.758-1.049 4.104-1.752 6.144-1.752 6.144s8.908-.43 11.195-2.635c0 0 1.71-8.681 10.838-16.637 6-5.207 13.744-12.567 22.41-11.228 6.358.972 3.378 5.076 2.308 6.835-1.039 1.75-4.396 6.389-20.511 12.856 0 0-2.665 5.295-3.148 7.588-1.259 5.907.42 11.78 4.606 10.913 4.197-.884 11.478-7.684 12.401-9.688 1.9-4.06 4.92-9.662 12.79-12.55 3.294-1.207 8.13-2.223 10.942-1.33 2.487.779 5.854 2.993 5.854 2.993l1.207-3.886h12.265s.535.998-1.197 5.339c-1.741 4.323-10.008 17.564-10.008 17.564s1.573 1.444 4.668-1.339c3.106-2.774 19.588-15.009 19.588-15.009s7.344-6.423 10.848-6.712c3.484-.298 5.592 1.741 5.592 1.741l1.301 5.085 2.256-1.199s2.843-3.544 7.071-3.912c2.812-.254 6.054 1.584 6.4 3.326.357 1.75 1.868 17.424 1.868 17.424s.178 2.915 2.266 2.915c2.098 0 5.067-2.635 5.067-2.635s-.252-8.165 5.865-15.7c5.33-6.564 11.478-7.246 13.723-7.115 4.197.236 8.058 3.273 8.058 3.273l6.074-17.18h14.006l-14.835 38.77s.777 1.453 2.172 1.156c1.385-.29 9.59-6.118 9.59-6.118s3.808-11.158 11.876-16.12c8.036-4.954 14.74-4.901 17.72-4.009 2.696.814 4.27 4.796 1.469 7.124-2.801 2.337-6.799 6.599-15.549 8.35 0 0-1.867 4.664-.325 6.327.944.997 3.693 2.905 6.138 1.444 2.444-1.462 31.632-22.072 31.632-22.072s4.144-1.304 6.221-.613c3.326 1.112 3.568 5.855 3.568 5.855l4.69-2.406.408-2.556s3.463-.446 5.194 2.337c.66 1.067 6.316 3.457 9.463 1.111 3.987-3.002 1.196-7.675 1.196-7.675s-2.822-6.905-20.238-12.987c-16.02-5.575-41.872-6.127-41.872-6.127l-295.726.29s-18.549.577-22.725 1.172c-4.217.586-16.807 4.962-19.262 7.001-2.434 2.03-10.964 6.617-10.964 6.617s-.566 4.07-1.626 6.695c-1.05 2.634-6.81 11.114-10.145 16.164-3.075 4.656-1.574 5.277-1.574 5.277s3.672 7.273 2.276 13.101c-1.405 5.846-2.444 11.194-7.826 13.67-3.987 1.82-9.548 3.606-13.146-1.172-.944-1.252-2.77-5.216-.902-9.347 2.34-5.164 8.403-10.222 7.994-10.782-3.231-4.472-16.262-14.554-17.993-22.343-2.182-9.828-1.731-18.02-1.731-18.02s-4.354 5.881-9.075 7.728c-4.113 1.61-8.614 4.21-8.614 4.21L10 212.444s2.33-.997 5.466-1.592c3.148-.578 6.295-2.03 6.295-2.03"/>
</svg>
